<?xml version="1.0" encoding="utf-8"?>
<?xml-stylesheet type="text/xsl" href="rss1.xsl"?>
<rss version="2.0" xmlns:atom="http://www.w3.org/2005/Atom" xmlns:content="http://purl.org/rss/1.0/modules/content/" xmlns:dc="http://purl.org/dc/elements/1.1/" xmlns:media="http://search.yahoo.com/mrss/">
<channel>
 <title>Getty</title>
 <link>http://www.gettyimg.com/</link>
 <atom:link href="http://www.gettyimg.com/" rel="self" type="application/rss+xml" />

 
                <item>
                <title><![CDATA[【HD Live Performances】WEB-RiP - Anne-Marie Asia-Exclusive Livestream and Performance - 07/27/2023 - 1080p Youtube]]></title>
                <link><![CDATA[https://sharemania.us/threads/anne-marie-asia-exclusive-livestream-and-performance-07-27-2023-1080p-youtube.225144/]]></link>
                <description><![CDATA[<article>
<blockquote class="messageText SelectQuoteContainer ugc baseHtml">
<img src="https://i.imgur.com/zEaiTCD.jpg" class="bbCodeImage LbImage" alt="[​IMG]" data-url="https://i.imgur.com/zEaiTCD.jpg" style=""> <br>
<b><span style="text-decoration: underline">Date:</span></b> July 27, 2022<br>
<b><span style="text-decoration: underline">Source:</span></b> YouTube<br>
<b><span style="text-decoration: underline">Description:</span></b> Anne-Marie is here to answer fan questions and perform a few songs!<br>
This was Asia-Exclusive before I uploaded it.<br>
<img src="https://i.imgur.com/Amyy4YS.jpg" class="bbCodeImage LbImage" alt="[​IMG]" data-url="https://i.imgur.com/Amyy4YS.jpg" style=""> <br>
<div class="ToggleTriggerAnchor bbCodeSpoilerContainer">
<button type="button" class="button bbCodeSpoilerButton ToggleTrigger Tooltip JsOnly" data-target="> .SpoilerTarget"><span>Spoiler: <span class="SpoilerTitle">Mediainfo</span></span></button>
<div class="SpoilerTarget bbCodeSpoilerText">General<br>
Format : MPEG-4<br>
Format profile : Base Media<br>
Codec ID : isom (isom/iso2/avc1/mp41)<br>
File size : 914 MiB<br>
Duration : 49 min 50 s<br>
Overall bit rate : 2 565 kb/s<br>
Frame rate : 60.000 FPS<br>
Writing application : Lavf60.10.100<br>
<br>
Video<br>
ID : 1<br>
Format : AVC<br>
Format/Info : Advanced Video Codec<br>
Format profile : High@L4.2<br>
Format settings : CABAC / 3 Ref Frames<br>
Format settings, CABAC : Yes<br>
Format settings, Reference : 3 frames<br>
Codec ID : avc1<br>
Codec ID/Info : Advanced Video Coding<br>
Duration : 49 min 50 s<br>
Bit rate : 2 426 kb/s<br>
Width : 1 920 pixels<br>
Height : 1 080 pixels<br>
Display aspect ratio : 16:9<br>
Frame rate mode : Constant<br>
Frame rate : 60.000 FPS<br>
Color space : YUV<br>
Chroma subsampling : 4:2:0<br>
Bit depth : 8 bits<br>
Scan type : Progressive<br>
Bits/(Pixel*Frame) : 0.020<br>
Stream size : 865 MiB (95%)<br>
Title : ISO Media file produced by Google Inc.<br>
Color range : Limited<br>
Color primaries : BT.709<br>
Transfer characteristics : BT.709<br>
Matrix coefficients : BT.709<br>
Codec configuration box : avcC<br>
<br>
Audio<br>
ID : 2<br>
Format : AAC LC<br>
Format/Info : Advanced Audio Codec Low Complexity<br>
Codec ID : mp4a-40-2<br>
Duration : 49 min 50 s<br>
Bit rate mode : Constant<br>
Bit rate : 128 kb/s<br>
Channel(s) : 2 channels<br>
Channel layout : L R<br>
Sampling rate : 44.1 kHz<br>
Frame rate : 43.066 FPS (1024 SPF)<br>
Compression mode : Lossy<br>
Stream size : 45.6 MiB (5%)<br>
Title : ISO Media file produced by Google Inc.<br>
Language : English<br>
Default : Yes<br>
Alternate group : 1</div>
</div>
<div class="bbCodeBlock bbCodeVfcHH HiddenContent">
<div class="attribution type">Hidden Content:</div>
<blockquote>You must either reply or click 'Like' to see the hidden information contained here.</blockquote>
</div>
<div class="messageTextEndMarker">&nbsp;</div>
</blockquote>
</article>]]></description>
                <author><![CDATA[charlescanlom]]></author>
                </item>

                </channel></rss>